<svg width="1049" height="206" viewBox="0 0 1049 206" fill="none" xmlns="http://www.w3.org/2000/svg">
<path d="M267.752 106.864C264.936 105.904 262.376 104.944 260.072 103.984C257.768 102.96 255.784 101.744 254.12 100.336C252.456 98.928 251.144 97.264 250.184 95.344C249.288 93.36 248.84 90.96 248.84 88.144C248.84 82.704 250.92 78.352 255.08 75.088C259.304 71.824 265.192 70.192 272.744 70.192C275.496 70.192 278.056 70.384 280.424 70.768C282.792 71.152 284.808 71.76 286.472 72.592C288.2 73.36 289.544 74.384 290.504 75.664C291.464 76.88 291.944 78.32 291.944 79.984C291.944 81.648 291.56 83.088 290.792 84.304C290.024 85.456 289.096 86.448 288.008 87.28C286.6 86.384 284.712 85.616 282.344 84.976C279.976 84.272 277.384 83.92 274.568 83.92C271.688 83.92 269.576 84.336 268.232 85.168C266.888 85.936 266.216 86.928 266.216 88.144C266.216 89.104 266.632 89.904 267.464 90.544C268.296 91.12 269.544 91.664 271.208 92.176L276.296 93.808C282.312 95.728 286.92 98.192 290.12 101.2C293.384 104.144 295.016 108.176 295.016 113.296C295.016 118.736 292.872 123.152 288.584 126.544C284.296 129.872 277.992 131.536 269.672 131.536C266.728 131.536 263.976 131.28 261.416 130.768C258.92 130.32 256.712 129.648 254.792 128.752C252.936 127.792 251.464 126.64 250.376 125.296C249.352 123.888 248.84 122.288 248.84 120.496C248.84 118.64 249.384 117.072 250.472 115.792C251.56 114.448 252.744 113.424 254.024 112.72C255.816 114.128 257.992 115.344 260.552 116.368C263.176 117.392 266.024 117.904 269.096 117.904C272.232 117.904 274.44 117.424 275.72 116.464C277 115.504 277.64 114.384 277.64 113.104C277.64 111.824 277.128 110.864 276.104 110.224C275.08 109.52 273.64 108.848 271.784 108.208L267.752 106.864ZM351.343 106.672C351.343 110.64 350.735 114.192 349.519 117.328C348.303 120.4 346.575 122.992 344.335 125.104C342.159 127.216 339.535 128.816 336.463 129.904C333.391 130.992 329.967 131.536 326.191 131.536C322.415 131.536 318.991 130.96 315.919 129.808C312.847 128.656 310.191 127.024 307.951 124.912C305.775 122.736 304.079 120.112 302.863 117.04C301.647 113.968 301.039 110.512 301.039 106.672C301.039 102.896 301.647 99.472 302.863 96.4C304.079 93.328 305.775 90.736 307.951 88.624C310.191 86.448 312.847 84.784 315.919 83.632C318.991 82.48 322.415 81.904 326.191 81.904C329.967 81.904 333.391 82.512 336.463 83.728C339.535 84.88 342.159 86.544 344.335 88.72C346.575 90.832 348.303 93.424 349.519 96.496C350.735 99.568 351.343 102.96 351.343 106.672ZM317.743 106.672C317.743 110.576 318.479 113.584 319.951 115.696C321.487 117.744 323.599 118.768 326.286 118.768C328.975 118.768 331.023 117.712 332.431 115.6C333.903 113.488 334.639 110.512 334.639 106.672C334.639 102.832 333.903 99.888 332.431 97.84C330.959 95.728 328.879 94.672 326.191 94.672C323.503 94.672 321.423 95.728 319.951 97.84C318.479 99.888 317.743 102.832 317.743 106.672ZM359.497 83.344C359.497 80.08 360.041 77.296 361.129 74.992C362.281 72.624 363.817 70.704 365.737 69.232C367.657 67.696 369.897 66.576 372.457 65.872C375.081 65.168 377.865 64.816 380.809 64.816C385.545 64.816 389.033 65.456 391.273 66.736C393.513 67.952 394.633 70.064 394.633 73.072C394.633 74.352 394.345 75.504 393.769 76.528C393.257 77.552 392.681 78.32 392.041 78.832C390.825 78.512 389.545 78.256 388.201 78.064C386.921 77.808 385.417 77.68 383.689 77.68C380.937 77.68 378.793 78.16 377.257 79.12C375.721 80.016 374.953 81.616 374.953 83.92V86.992H390.697C391.081 87.696 391.433 88.592 391.753 89.68C392.137 90.704 392.329 91.856 392.329 93.136C392.329 95.376 391.817 97.008 390.793 98.032C389.833 98.992 388.521 99.472 386.857 99.472H375.817V129.904C375.177 130.096 374.153 130.288 372.745 130.48C371.401 130.672 369.993 130.768 368.521 130.768C367.113 130.768 365.833 130.672 364.681 130.48C363.593 130.288 362.665 129.904 361.897 129.328C361.129 128.752 360.521 127.984 360.073 127.024C359.689 126 359.497 124.688 359.497 123.088V83.344ZM416.406 113.968C416.406 115.632 416.918 116.816 417.942 117.52C419.03 118.224 420.534 118.576 422.454 118.576C423.414 118.576 424.406 118.512 425.43 118.384C426.454 118.192 427.35 117.968 428.118 117.712C428.694 118.416 429.174 119.216 429.558 120.112C430.006 120.944 430.23 121.968 430.23 123.184C430.23 125.616 429.302 127.6 427.446 129.136C425.654 130.672 422.454 131.44 417.846 131.44C412.214 131.44 407.862 130.16 404.79 127.6C401.782 125.04 400.278 120.88 400.278 115.12V74.032C400.982 73.84 401.974 73.648 403.254 73.456C404.598 73.2 406.006 73.072 407.478 73.072C410.294 73.072 412.47 73.584 414.006 74.608C415.606 75.568 416.406 77.648 416.406 80.848V86.992H428.982C429.366 87.696 429.718 88.592 430.038 89.68C430.422 90.704 430.614 91.856 430.614 93.136C430.614 95.376 430.102 97.008 429.078 98.032C428.118 98.992 426.806 99.472 425.142 99.472H416.406V113.968ZM456.091 118C456.987 118.256 458.139 118.448 459.547 118.576C460.955 118.64 462.299 118.672 463.579 118.672C466.139 118.672 468.251 118.16 469.915 117.136C471.643 116.048 472.507 114.384 472.507 112.144C472.507 110.032 471.803 108.528 470.395 107.632C468.987 106.736 466.843 106.288 463.963 106.288H456.091V118ZM456.091 94.576H463.099C465.851 94.576 467.835 94.064 469.051 93.04C470.331 92.016 470.971 90.512 470.971 88.528C470.971 86.8 470.235 85.424 468.763 84.4C467.355 83.376 465.211 82.864 462.331 82.864C461.371 82.864 460.251 82.896 458.971 82.96C457.755 83.024 456.795 83.12 456.091 83.248V94.576ZM462.331 131.536C461.243 131.536 459.963 131.504 458.491 131.44C457.019 131.376 455.483 131.248 453.883 131.056C452.347 130.864 450.811 130.608 449.275 130.288C447.739 130.032 446.331 129.648 445.051 129.136C441.531 127.792 439.771 125.456 439.771 122.128V77.296C439.771 75.952 440.123 74.928 440.827 74.224C441.595 73.456 442.619 72.848 443.899 72.4C446.075 71.632 448.795 71.088 452.059 70.768C455.323 70.384 458.683 70.192 462.139 70.192C470.331 70.192 476.635 71.568 481.051 74.32C485.467 77.072 487.675 81.328 487.675 87.088C487.675 89.968 486.843 92.464 485.179 94.576C483.515 96.624 481.275 98.128 478.459 99.088C481.659 99.984 484.315 101.616 486.427 103.984C488.603 106.352 489.691 109.328 489.691 112.912C489.691 119.248 487.323 123.952 482.587 127.024C477.915 130.032 471.163 131.536 462.331 131.536ZM517.929 119.632C519.017 119.632 520.201 119.536 521.481 119.344C522.825 119.088 523.817 118.768 524.457 118.384V110.704L517.545 111.28C515.753 111.408 514.281 111.792 513.129 112.432C511.977 113.072 511.401 114.032 511.401 115.312C511.401 116.592 511.881 117.648 512.841 118.48C513.865 119.248 515.561 119.632 517.929 119.632ZM517.161 81.904C520.617 81.904 523.753 82.256 526.569 82.96C529.449 83.664 531.881 84.752 533.865 86.224C535.913 87.632 537.481 89.456 538.569 91.696C539.657 93.872 540.201 96.464 540.201 99.472V120.976C540.201 122.64 539.721 124.016 538.761 125.104C537.865 126.128 536.777 127.024 535.497 127.792C531.337 130.288 525.481 131.536 517.929 131.536C514.537 131.536 511.465 131.216 508.713 130.576C506.025 129.936 503.689 128.976 501.705 127.696C499.785 126.416 498.281 124.784 497.193 122.8C496.169 120.816 495.657 118.512 495.657 115.888C495.657 111.472 496.969 108.08 499.593 105.712C502.217 103.344 506.281 101.872 511.785 101.296L524.361 99.952V99.28C524.361 97.424 523.529 96.112 521.865 95.344C520.265 94.512 517.929 94.096 514.857 94.096C512.425 94.096 510.057 94.352 507.753 94.864C505.449 95.376 503.369 96.016 501.513 96.784C500.681 96.208 499.977 95.344 499.401 94.192C498.825 92.976 498.537 91.728 498.537 90.448C498.537 88.784 498.921 87.472 499.689 86.512C500.521 85.488 501.769 84.624 503.433 83.92C505.289 83.216 507.465 82.704 509.961 82.384C512.521 82.064 514.921 81.904 517.161 81.904ZM579.748 100.432C579.748 98.448 579.172 97.008 578.02 96.112C576.932 95.152 575.428 94.672 573.508 94.672C572.228 94.672 570.948 94.832 569.668 95.152C568.452 95.472 567.396 95.952 566.5 96.592V129.904C565.86 130.096 564.836 130.288 563.428 130.48C562.084 130.672 560.676 130.768 559.204 130.768C557.796 130.768 556.516 130.672 555.364 130.48C554.276 130.288 553.348 129.904 552.58 129.328C551.812 128.752 551.204 127.984 550.756 127.024C550.372 126 550.18 124.688 550.18 123.088V94.288C550.18 92.56 550.532 91.152 551.236 90.064C552.004 88.976 553.028 87.984 554.308 87.088C556.484 85.552 559.204 84.304 562.468 83.344C565.796 82.384 569.476 81.904 573.508 81.904C580.74 81.904 586.308 83.504 590.212 86.704C594.116 89.84 596.068 94.224 596.068 99.856V129.904C595.428 130.096 594.404 130.288 592.996 130.48C591.652 130.672 590.244 130.768 588.772 130.768C587.364 130.768 586.084 130.672 584.932 130.48C583.844 130.288 582.916 129.904 582.148 129.328C581.38 128.752 580.772 127.984 580.324 127.024C579.94 126 579.748 124.688 579.748 123.088V100.432ZM626.116 119.632C627.204 119.632 628.388 119.536 629.668 119.344C631.012 119.088 632.004 118.768 632.644 118.384V110.704L625.732 111.28C623.94 111.408 622.468 111.792 621.316 112.432C620.164 113.072 619.588 114.032 619.588 115.312C619.588 116.592 620.068 117.648 621.028 118.48C622.052 119.248 623.748 119.632 626.116 119.632ZM625.348 81.904C628.804 81.904 631.94 82.256 634.756 82.96C637.636 83.664 640.068 84.752 642.052 86.224C644.1 87.632 645.668 89.456 646.756 91.696C647.844 93.872 648.388 96.464 648.388 99.472V120.976C648.388 122.64 647.908 124.016 646.948 125.104C646.052 126.128 644.964 127.024 643.684 127.792C639.524 130.288 633.668 131.536 626.116 131.536C622.724 131.536 619.652 131.216 616.9 130.576C614.212 129.936 611.876 128.976 609.892 127.696C607.972 126.416 606.468 124.784 605.38 122.8C604.356 120.816 603.844 118.512 603.844 115.888C603.844 111.472 605.156 108.08 607.78 105.712C610.404 103.344 614.468 101.872 619.972 101.296L632.548 99.952V99.28C632.548 97.424 631.716 96.112 630.052 95.344C628.452 94.512 626.116 94.096 623.044 94.096C620.612 94.096 618.244 94.352 615.94 94.864C613.636 95.376 611.556 96.016 609.7 96.784C608.868 96.208 608.164 95.344 607.588 94.192C607.012 92.976 606.724 91.728 606.724 90.448C606.724 88.784 607.108 87.472 607.876 86.512C608.708 85.488 609.956 84.624 611.62 83.92C613.476 83.216 615.652 82.704 618.148 82.384C620.708 82.064 623.108 81.904 625.348 81.904ZM687.935 100.432C687.935 98.448 687.359 97.008 686.207 96.112C685.119 95.152 683.615 94.672 681.695 94.672C680.415 94.672 679.135 94.832 677.855 95.152C676.639 95.472 675.583 95.952 674.687 96.592V129.904C674.047 130.096 673.023 130.288 671.615 130.48C670.271 130.672 668.863 130.768 667.391 130.768C665.983 130.768 664.703 130.672 663.551 130.48C662.463 130.288 661.535 129.904 660.767 129.328C659.999 128.752 659.391 127.984 658.943 127.024C658.559 126 658.367 124.688 658.367 123.088V94.288C658.367 92.56 658.719 91.152 659.423 90.064C660.191 88.976 661.215 87.984 662.495 87.088C664.671 85.552 667.391 84.304 670.655 83.344C673.983 82.384 677.663 81.904 681.695 81.904C688.927 81.904 694.495 83.504 698.399 86.704C702.303 89.84 704.255 94.224 704.255 99.856V129.904C703.615 130.096 702.591 130.288 701.183 130.48C699.839 130.672 698.431 130.768 696.959 130.768C695.551 130.768 694.271 130.672 693.119 130.48C692.031 130.288 691.103 129.904 690.335 129.328C689.567 128.752 688.959 127.984 688.511 127.024C688.127 126 687.935 124.688 687.935 123.088V100.432ZM734.304 119.632C735.392 119.632 736.576 119.536 737.856 119.344C739.2 119.088 740.192 118.768 740.832 118.384V110.704L733.92 111.28C732.128 111.408 730.656 111.792 729.504 112.432C728.352 113.072 727.776 114.032 727.776 115.312C727.776 116.592 728.256 117.648 729.216 118.48C730.24 119.248 731.936 119.632 734.304 119.632ZM733.536 81.904C736.992 81.904 740.128 82.256 742.944 82.96C745.824 83.664 748.256 84.752 750.24 86.224C752.288 87.632 753.856 89.456 754.944 91.696C756.032 93.872 756.576 96.464 756.576 99.472V120.976C756.576 122.64 756.096 124.016 755.136 125.104C754.24 126.128 753.152 127.024 751.872 127.792C747.712 130.288 741.856 131.536 734.304 131.536C730.912 131.536 727.84 131.216 725.088 130.576C722.4 129.936 720.064 128.976 718.08 127.696C716.16 126.416 714.656 124.784 713.568 122.8C712.544 120.816 712.032 118.512 712.032 115.888C712.032 111.472 713.344 108.08 715.968 105.712C718.592 103.344 722.656 101.872 728.16 101.296L740.736 99.952V99.28C740.736 97.424 739.904 96.112 738.24 95.344C736.64 94.512 734.304 94.096 731.232 94.096C728.8 94.096 726.432 94.352 724.128 94.864C721.824 95.376 719.744 96.016 717.888 96.784C717.056 96.208 716.352 95.344 715.776 94.192C715.2 92.976 714.912 91.728 714.912 90.448C714.912 88.784 715.296 87.472 716.064 86.512C716.896 85.488 718.144 84.624 719.808 83.92C721.664 83.216 723.84 82.704 726.336 82.384C728.896 82.064 731.296 81.904 733.536 81.904ZM805.915 116.08C805.915 120.944 804.091 124.752 800.443 127.504C796.795 130.256 791.419 131.632 784.315 131.632C781.627 131.632 779.131 131.44 776.827 131.056C774.523 130.672 772.539 130.096 770.875 129.328C769.275 128.496 767.995 127.472 767.035 126.256C766.139 125.04 765.691 123.6 765.691 121.936C765.691 120.4 766.011 119.12 766.651 118.096C767.291 117.008 768.059 116.112 768.955 115.408C770.811 116.432 772.923 117.36 775.291 118.192C777.723 118.96 780.507 119.344 783.643 119.344C785.627 119.344 787.131 119.056 788.155 118.48C789.243 117.904 789.786 117.136 789.786 116.176C789.786 115.28 789.403 114.576 788.635 114.064C787.867 113.552 786.587 113.136 784.795 112.816L781.915 112.24C776.347 111.152 772.187 109.456 769.435 107.152C766.747 104.784 765.403 101.424 765.403 97.072C765.403 94.704 765.915 92.56 766.939 90.64C767.963 88.72 769.403 87.12 771.259 85.84C773.115 84.56 775.323 83.568 777.883 82.864C780.507 82.16 783.387 81.808 786.523 81.808C788.891 81.808 791.099 82 793.147 82.384C795.259 82.704 797.083 83.216 798.619 83.92C800.155 84.624 801.371 85.552 802.267 86.704C803.163 87.792 803.611 89.104 803.611 90.64C803.611 92.112 803.323 93.392 802.747 94.48C802.235 95.504 801.563 96.368 800.731 97.072C800.219 96.752 799.451 96.432 798.427 96.112C797.403 95.728 796.283 95.408 795.067 95.152C793.851 94.832 792.603 94.576 791.323 94.384C790.107 94.192 788.987 94.096 787.963 94.096C785.851 94.096 784.219 94.352 783.067 94.864C781.915 95.312 781.339 96.048 781.339 97.072C781.339 97.776 781.659 98.352 782.299 98.8C782.939 99.248 784.155 99.664 785.947 100.048L788.923 100.72C795.067 102.128 799.419 104.08 801.979 106.576C804.603 109.008 805.915 112.176 805.915 116.08ZM832.639 70.384C832.639 67.952 833.439 65.904 835.039 64.24C836.703 62.576 838.879 61.744 841.567 61.744C844.255 61.744 846.399 62.576 847.999 64.24C849.663 65.904 850.495 67.952 850.495 70.384C850.495 72.816 849.663 74.864 847.999 76.528C846.399 78.192 844.255 79.024 841.567 79.024C838.879 79.024 836.703 78.192 835.039 76.528C833.439 74.864 832.639 72.816 832.639 70.384ZM849.727 129.904C849.023 130.032 847.967 130.192 846.559 130.384C845.215 130.64 843.839 130.768 842.431 130.768C841.023 130.768 839.743 130.672 838.591 130.48C837.503 130.288 836.575 129.904 835.807 129.328C835.039 128.752 834.431 127.984 833.983 127.024C833.599 126 833.407 124.688 833.407 123.088V84.016C834.111 83.888 835.135 83.728 836.479 83.536C837.887 83.28 839.295 83.152 840.703 83.152C842.111 83.152 843.359 83.248 844.447 83.44C845.599 83.632 846.559 84.016 847.327 84.592C848.095 85.168 848.671 85.968 849.055 86.992C849.503 87.952 849.727 89.232 849.727 90.832V129.904ZM889.685 100.432C889.685 98.448 889.109 97.008 887.957 96.112C886.869 95.152 885.365 94.672 883.445 94.672C882.165 94.672 880.885 94.832 879.605 95.152C878.389 95.472 877.333 95.952 876.437 96.592V129.904C875.797 130.096 874.773 130.288 873.365 130.48C872.021 130.672 870.613 130.768 869.141 130.768C867.733 130.768 866.453 130.672 865.301 130.48C864.213 130.288 863.285 129.904 862.517 129.328C861.749 128.752 861.141 127.984 860.693 127.024C860.309 126 860.117 124.688 860.117 123.088V94.288C860.117 92.56 860.469 91.152 861.173 90.064C861.941 88.976 862.965 87.984 864.245 87.088C866.421 85.552 869.141 84.304 872.405 83.344C875.733 82.384 879.413 81.904 883.445 81.904C890.677 81.904 896.245 83.504 900.149 86.704C904.053 89.84 906.005 94.224 906.005 99.856V129.904C905.365 130.096 904.341 130.288 902.933 130.48C901.589 130.672 900.181 130.768 898.709 130.768C897.301 130.768 896.021 130.672 894.869 130.48C893.781 130.288 892.853 129.904 892.085 129.328C891.317 128.752 890.709 127.984 890.261 127.024C889.877 126 889.685 124.688 889.685 123.088V100.432ZM942.39 94.768C940.79 94.768 939.254 95.024 937.782 95.536C936.374 96.048 935.126 96.816 934.038 97.84C933.014 98.8 932.182 100.016 931.542 101.488C930.902 102.96 930.582 104.688 930.582 106.672C930.582 110.64 931.702 113.616 933.942 115.6C936.246 117.584 939.03 118.576 942.294 118.576C944.214 118.576 945.878 118.352 947.286 117.904C948.694 117.456 949.942 116.976 951.03 116.464C952.31 117.36 953.27 118.352 953.91 119.44C954.55 120.464 954.87 121.712 954.87 123.184C954.87 125.808 953.622 127.856 951.126 129.328C948.63 130.736 945.174 131.44 940.758 131.44C936.726 131.44 933.078 130.864 929.814 129.712C926.55 128.496 923.734 126.832 921.366 124.72C919.062 122.544 917.27 119.952 915.99 116.944C914.71 113.936 914.07 110.608 914.07 106.96C914.07 102.736 914.742 99.056 916.086 95.92C917.494 92.72 919.382 90.096 921.75 88.048C924.118 86 926.838 84.464 929.91 83.44C933.046 82.416 936.342 81.904 939.798 81.904C944.406 81.904 947.958 82.736 950.454 84.4C952.95 86.064 954.198 88.208 954.198 90.832C954.198 92.048 953.91 93.2 953.334 94.288C952.758 95.312 952.086 96.208 951.318 96.976C950.23 96.464 948.918 95.984 947.382 95.536C945.846 95.024 944.182 94.768 942.39 94.768ZM961.112 122.224C961.112 119.536 961.944 117.296 963.608 115.504C965.272 113.712 967.544 112.816 970.424 112.816C973.304 112.816 975.576 113.712 977.24 115.504C978.904 117.296 979.736 119.536 979.736 122.224C979.736 124.912 978.904 127.152 977.24 128.944C975.576 130.736 973.304 131.632 970.424 131.632C967.544 131.632 965.272 130.736 963.608 128.944C961.944 127.152 961.112 124.912 961.112 122.224Z" fill="url(#paint0_linear_601_2)"/>
<path fill-rule="evenodd" clip-rule="evenodd" d="M151.749 35C161.057 35 170.364 35 179.672 35C179.672 39.6289 179.672 44.2577 179.672 48.8865C170.364 48.8865 161.057 48.8865 151.749 48.8865C151.749 44.2577 151.749 39.6289 151.749 35Z" fill="#5C0183"/>
<path fill-rule="evenodd" clip-rule="evenodd" d="M151.749 35C151.749 39.6289 151.749 44.2577 151.749 48.8865C161.057 48.8865 170.364 48.8865 179.672 48.8865C170.23 49.699 160.631 49.9712 150.877 49.7034C150.595 44.6471 150.885 39.7459 151.749 35Z" fill="#8947A5"/>
<path fill-rule="evenodd" clip-rule="evenodd" d="M197.124 51.3371C198.497 51.6942 199.515 52.511 200.178 53.7877C218.929 86.8605 216.602 118.445 193.197 148.543C168.005 173.264 137.61 181.297 102.012 172.64C101.455 171.246 101.455 169.748 102.012 168.147C131.311 175.2 157.78 170.163 181.417 153.036C208.125 127.406 214.379 97.8636 200.178 64.4068C198.065 61.2698 196.174 58.0024 194.506 54.6045C195.399 53.5003 196.272 52.4112 197.124 51.3371Z" fill="#65158A"/>
<path fill-rule="evenodd" clip-rule="evenodd" d="M123.826 133.023C113.876 133.228 103.987 132.683 94.1583 131.389C89.023 130.664 84.0783 129.302 79.3243 127.305C77.4719 128.63 77.181 130.263 78.4517 132.206C97.3578 138.613 116.555 139.566 136.043 135.065C151.29 129.504 161.907 119.566 167.892 105.25C173.936 88.8545 176.408 71.9731 175.309 54.6045C177.529 54.2813 179.42 54.8259 180.981 56.2382C191.776 77.3241 192.94 98.8348 184.471 120.77C167.495 150.291 141.463 161.318 106.375 153.852C92.0668 150.222 79.7051 143.552 69.2896 133.839C67.3629 131.345 66.4903 128.622 66.6718 125.671C67.3989 124.99 68.1262 124.309 68.8533 123.629C93.0864 124.683 115.192 118.965 135.17 106.475C150.649 92.2852 157.629 74.9953 156.112 54.6045C160.766 54.6045 165.42 54.6045 170.073 54.6045C170.952 69.2761 169.352 83.7074 165.274 97.8979C159.29 117.799 145.473 129.507 123.826 133.023Z" fill="#5F0785"/>
<path fill-rule="evenodd" clip-rule="evenodd" d="M149.131 69.3079C147.073 90.4702 135.148 104.765 113.355 112.193C89.908 117.542 72.4562 110.326 61 90.5461C61.8726 90.2741 62.7452 90.0013 63.6178 89.7293C92.0114 98.2695 117.898 94.0496 141.278 77.068C144.074 74.5881 146.692 72.0014 149.131 69.3079Z" fill="#5F0885"/>
<path fill-rule="evenodd" clip-rule="evenodd" d="M94.1583 131.389C103.987 132.683 113.876 133.228 123.826 133.023C117 133.967 110.019 134.103 102.884 133.431C99.7968 132.994 96.8881 132.314 94.1583 131.389Z" fill="#5F0785"/>
<path fill-rule="evenodd" clip-rule="evenodd" d="M74.0888 154.261C79.6162 157.665 85.1425 161.069 90.668 164.472C90.144 167.996 88.3988 168.813 85.4325 166.922C80.2837 164.382 75.6299 161.25 71.4711 157.528C72.3649 156.424 73.2375 155.335 74.0888 154.261Z" fill="#68198B"/>
<path fill-rule="evenodd" clip-rule="evenodd" d="M151.749 35C161.057 35 170.364 35 179.672 35C179.672 39.6289 179.672 44.2577 179.672 48.8865C170.364 48.8865 161.057 48.8865 151.749 48.8865C151.749 44.2577 151.749 39.6289 151.749 35Z" fill="#5C0183"/>
<path fill-rule="evenodd" clip-rule="evenodd" d="M151.749 35C151.749 39.6289 151.749 44.2577 151.749 48.8865C161.057 48.8865 170.364 48.8865 179.672 48.8865C170.23 49.699 160.631 49.9712 150.877 49.7034C150.595 44.6471 150.885 39.7459 151.749 35Z" fill="#8947A5"/>
<path fill-rule="evenodd" clip-rule="evenodd" d="M197.124 51.3371C198.497 51.6942 199.515 52.511 200.178 53.7877C218.929 86.8605 216.602 118.445 193.197 148.543C168.005 173.264 137.61 181.297 102.012 172.64C101.455 171.246 101.455 169.748 102.012 168.147C131.311 175.2 157.78 170.163 181.417 153.036C208.125 127.406 214.379 97.8636 200.178 64.4068C198.065 61.2698 196.174 58.0024 194.506 54.6045C195.399 53.5003 196.272 52.4112 197.124 51.3371Z" fill="#65158A"/>
<path fill-rule="evenodd" clip-rule="evenodd" d="M149.131 69.3079C147.073 90.4702 135.148 104.765 113.355 112.193C89.908 117.542 72.4562 110.326 61 90.5461C61.8726 90.2741 62.7452 90.0013 63.6178 89.7293C92.0114 98.2695 117.898 94.0496 141.278 77.068C144.074 74.5881 146.692 72.0014 149.131 69.3079Z" fill="#5F0885"/>
<path fill-rule="evenodd" clip-rule="evenodd" d="M74.0888 154.261C79.6162 157.665 85.1425 161.069 90.668 164.472C90.144 167.996 88.3988 168.813 85.4325 166.922C80.2837 164.382 75.6299 161.25 71.4711 157.528C72.3649 156.424 73.2375 155.335 74.0888 154.261Z" fill="#68198B"/>
<path fill-rule="evenodd" clip-rule="evenodd" d="M151.749 35C161.057 35 170.364 35 179.672 35C179.672 39.6289 179.672 44.2577 179.672 48.8865C170.364 48.8865 161.057 48.8865 151.749 48.8865C151.749 44.2577 151.749 39.6289 151.749 35Z" fill="#5C0183"/>
<path fill-rule="evenodd" clip-rule="evenodd" d="M151.749 35C151.749 39.6289 151.749 44.2577 151.749 48.8865C161.057 48.8865 170.364 48.8865 179.672 48.8865C170.23 49.699 160.631 49.9712 150.877 49.7034C150.595 44.6471 150.885 39.7459 151.749 35Z" fill="#8947A5"/>
<path fill-rule="evenodd" clip-rule="evenodd" d="M197.124 51.3371C198.497 51.6942 199.515 52.511 200.178 53.7877C218.929 86.8605 216.602 118.445 193.197 148.543C168.005 173.264 137.61 181.297 102.012 172.64C101.455 171.246 101.455 169.748 102.012 168.147C131.311 175.2 157.78 170.163 181.417 153.036C208.125 127.406 214.379 97.8636 200.178 64.4068C198.065 61.2698 196.174 58.0024 194.506 54.6045C195.399 53.5003 196.272 52.4112 197.124 51.3371Z" fill="#65158A"/>
<path fill-rule="evenodd" clip-rule="evenodd" d="M149.131 69.3079C147.073 90.4702 135.148 104.765 113.355 112.193C89.908 117.542 72.4562 110.326 61 90.5461C61.8726 90.2741 62.7452 90.0013 63.6178 89.7293C92.0114 98.2695 117.898 94.0496 141.278 77.068C144.074 74.5881 146.692 72.0014 149.131 69.3079Z" fill="#5F0885"/>
<path fill-rule="evenodd" clip-rule="evenodd" d="M74.0888 154.261C79.6162 157.665 85.1425 161.069 90.668 164.472C90.144 167.996 88.3988 168.813 85.4325 166.922C80.2837 164.382 75.6299 161.25 71.4711 157.528C72.3649 156.424 73.2375 155.335 74.0888 154.261Z" fill="#68198B"/>
<defs>
<linearGradient id="paint0_linear_601_2" x1="257.016" y1="97.6" x2="982.029" y2="104.149" gradientUnits="userSpaceOnUse">
<stop stop-color="#5C0183"/>
<stop offset="1" stop-color="#AC65D6"/>
</linearGradient>
</defs>
</svg>
