<svg width="1102" height="206" viewBox="0 0 1102 206" fill="none" xmlns="http://www.w3.org/2000/svg">
<path d="M248.552 85.264C248.104 84.56 247.688 83.6 247.304 82.384C246.92 81.168 246.728 79.888 246.728 78.544C246.728 76.048 247.272 74.256 248.36 73.168C249.512 72.08 250.984 71.536 252.776 71.536H294.632C295.08 72.24 295.496 73.2 295.88 74.416C296.264 75.632 296.456 76.912 296.456 78.256C296.456 80.752 295.88 82.544 294.728 83.632C293.64 84.72 292.2 85.264 290.408 85.264H279.752V129.616C279.048 129.808 277.928 130 276.392 130.192C274.92 130.384 273.448 130.48 271.976 130.48C270.504 130.48 269.192 130.352 268.04 130.096C266.952 129.904 266.024 129.52 265.256 128.944C264.488 128.368 263.912 127.568 263.528 126.544C263.144 125.52 262.952 124.176 262.952 122.512V85.264H248.552ZM322.289 131.536C318.513 131.536 314.993 131.024 311.729 130C308.529 128.912 305.713 127.312 303.281 125.2C300.913 123.088 299.025 120.432 297.617 117.232C296.273 114.032 295.601 110.288 295.601 106C295.601 101.776 296.273 98.16 297.617 95.152C299.025 92.08 300.849 89.584 303.089 87.664C305.329 85.68 307.889 84.24 310.769 83.344C313.649 82.384 316.593 81.904 319.601 81.904C322.993 81.904 326.065 82.416 328.817 83.44C331.633 84.464 334.033 85.872 336.017 87.664C338.065 89.456 339.633 91.6 340.721 94.096C341.873 96.592 342.449 99.312 342.449 102.256C342.449 104.432 341.841 106.096 340.625 107.248C339.409 108.4 337.713 109.136 335.537 109.456L311.825 113.008C312.529 115.12 313.969 116.72 316.145 117.808C318.321 118.832 320.817 119.344 323.633 119.344C326.257 119.344 328.721 119.024 331.025 118.384C333.393 117.68 335.313 116.88 336.785 115.984C337.809 116.624 338.673 117.52 339.377 118.672C340.081 119.824 340.433 121.04 340.433 122.32C340.433 125.2 339.089 127.344 336.401 128.752C334.353 129.84 332.049 130.576 329.489 130.96C326.929 131.344 324.529 131.536 322.289 131.536ZM319.601 93.808C318.065 93.808 316.721 94.064 315.569 94.576C314.481 95.088 313.585 95.76 312.881 96.592C312.177 97.36 311.633 98.256 311.249 99.28C310.929 100.24 310.737 101.232 310.673 102.256L327.089 99.568C326.897 98.288 326.193 97.008 324.977 95.728C323.761 94.448 321.969 93.808 319.601 93.808ZM366.913 129.904C366.209 130.032 365.153 130.192 363.745 130.384C362.401 130.64 361.025 130.768 359.617 130.768C358.209 130.768 356.929 130.672 355.777 130.48C354.689 130.288 353.761 129.904 352.993 129.328C352.225 128.752 351.617 127.984 351.169 127.024C350.785 126 350.593 124.688 350.593 123.088V67.408C351.297 67.28 352.321 67.12 353.665 66.928C355.073 66.672 356.481 66.544 357.889 66.544C359.297 66.544 360.545 66.64 361.633 66.832C362.785 67.024 363.745 67.408 364.513 67.984C365.281 68.56 365.857 69.36 366.241 70.384C366.689 71.344 366.913 72.624 366.913 74.224V129.904ZM401.883 131.536C398.107 131.536 394.587 131.024 391.323 130C388.123 128.912 385.307 127.312 382.875 125.2C380.507 123.088 378.619 120.432 377.211 117.232C375.867 114.032 375.195 110.288 375.195 106C375.195 101.776 375.867 98.16 377.211 95.152C378.619 92.08 380.443 89.584 382.683 87.664C384.923 85.68 387.483 84.24 390.363 83.344C393.243 82.384 396.187 81.904 399.195 81.904C402.587 81.904 405.659 82.416 408.411 83.44C411.227 84.464 413.627 85.872 415.611 87.664C417.659 89.456 419.227 91.6 420.315 94.096C421.467 96.592 422.043 99.312 422.043 102.256C422.043 104.432 421.435 106.096 420.219 107.248C419.003 108.4 417.307 109.136 415.131 109.456L391.419 113.008C392.123 115.12 393.563 116.72 395.739 117.808C397.915 118.832 400.411 119.344 403.227 119.344C405.851 119.344 408.315 119.024 410.619 118.384C412.987 117.68 414.907 116.88 416.379 115.984C417.403 116.624 418.267 117.52 418.971 118.672C419.675 119.824 420.027 121.04 420.027 122.32C420.027 125.2 418.683 127.344 415.995 128.752C413.947 129.84 411.643 130.576 409.083 130.96C406.523 131.344 404.123 131.536 401.883 131.536ZM399.195 93.808C397.659 93.808 396.315 94.064 395.163 94.576C394.075 95.088 393.179 95.76 392.475 96.592C391.771 97.36 391.227 98.256 390.843 99.28C390.523 100.24 390.331 101.232 390.267 102.256L406.683 99.568C406.491 98.288 405.787 97.008 404.571 95.728C403.355 94.448 401.563 93.808 399.195 93.808ZM452.65 81.904C456.298 81.904 459.594 82.384 462.538 83.344C465.546 84.24 468.074 85.424 470.122 86.896C471.402 87.792 472.394 88.784 473.098 89.872C473.866 90.96 474.25 92.368 474.25 94.096V127.696C474.25 131.088 473.61 134 472.33 136.432C471.05 138.928 469.29 140.976 467.05 142.576C464.874 144.24 462.282 145.456 459.274 146.224C456.33 146.992 453.162 147.376 449.77 147.376C443.946 147.376 439.37 146.576 436.042 144.976C432.714 143.44 431.05 140.912 431.05 137.392C431.05 135.92 431.338 134.608 431.914 133.456C432.554 132.368 433.258 131.536 434.026 130.96C435.882 131.984 437.962 132.848 440.266 133.552C442.634 134.256 445.066 134.608 447.562 134.608C451.018 134.608 453.77 134.032 455.818 132.88C457.866 131.728 458.89 129.872 458.89 127.312V125.776C456.266 126.928 453.066 127.504 449.29 127.504C446.41 127.504 443.658 127.088 441.034 126.256C438.474 125.36 436.202 124.016 434.218 122.224C432.298 120.368 430.73 118 429.514 115.12C428.362 112.24 427.786 108.816 427.786 104.848C427.786 100.944 428.394 97.552 429.61 94.672C430.89 91.792 432.618 89.424 434.794 87.568C437.034 85.648 439.658 84.24 442.666 83.344C445.738 82.384 449.066 81.904 452.65 81.904ZM458.602 95.824C458.154 95.568 457.482 95.312 456.586 95.056C455.754 94.8 454.698 94.672 453.418 94.672C450.282 94.672 447.914 95.568 446.314 97.36C444.778 99.088 444.01 101.584 444.01 104.848C444.01 108.56 444.778 111.248 446.314 112.912C447.914 114.512 449.93 115.312 452.362 115.312C454.986 115.312 457.066 114.704 458.602 113.488V95.824ZM500.687 129.904C500.047 130.096 499.023 130.288 497.615 130.48C496.271 130.672 494.863 130.768 493.391 130.768C491.983 130.768 490.703 130.672 489.551 130.48C488.463 130.288 487.535 129.904 486.767 129.328C485.999 128.752 485.391 127.984 484.943 127.024C484.559 126 484.367 124.688 484.367 123.088V94.288C484.367 92.816 484.623 91.568 485.135 90.544C485.711 89.456 486.511 88.496 487.535 87.664C488.559 86.832 489.807 86.096 491.279 85.456C492.815 84.752 494.447 84.144 496.175 83.632C497.903 83.12 499.695 82.736 501.551 82.48C503.407 82.16 505.263 82 507.119 82C510.191 82 512.623 82.608 514.415 83.824C516.207 84.976 517.103 86.896 517.103 89.584C517.103 90.48 516.975 91.376 516.719 92.272C516.463 93.104 516.143 93.872 515.759 94.576C514.415 94.576 513.039 94.64 511.631 94.768C510.223 94.896 508.847 95.088 507.503 95.344C506.159 95.6 504.879 95.888 503.663 96.208C502.511 96.464 501.519 96.784 500.687 97.168V129.904ZM542.398 119.632C543.486 119.632 544.67 119.536 545.95 119.344C547.294 119.088 548.286 118.768 548.926 118.384V110.704L542.014 111.28C540.222 111.408 538.75 111.792 537.598 112.432C536.446 113.072 535.87 114.032 535.87 115.312C535.87 116.592 536.35 117.648 537.31 118.48C538.334 119.248 540.03 119.632 542.398 119.632ZM541.63 81.904C545.086 81.904 548.222 82.256 551.038 82.96C553.918 83.664 556.35 84.752 558.334 86.224C560.382 87.632 561.95 89.456 563.038 91.696C564.126 93.872 564.67 96.464 564.67 99.472V120.976C564.67 122.64 564.19 124.016 563.23 125.104C562.334 126.128 561.246 127.024 559.966 127.792C555.806 130.288 549.95 131.536 542.398 131.536C539.006 131.536 535.934 131.216 533.182 130.576C530.494 129.936 528.158 128.976 526.174 127.696C524.254 126.416 522.75 124.784 521.662 122.8C520.638 120.816 520.126 118.512 520.126 115.888C520.126 111.472 521.438 108.08 524.062 105.712C526.686 103.344 530.75 101.872 536.254 101.296L548.83 99.952V99.28C548.83 97.424 547.998 96.112 546.334 95.344C544.734 94.512 542.398 94.096 539.326 94.096C536.894 94.096 534.526 94.352 532.222 94.864C529.918 95.376 527.838 96.016 525.982 96.784C525.15 96.208 524.446 95.344 523.87 94.192C523.294 92.976 523.006 91.728 523.006 90.448C523.006 88.784 523.39 87.472 524.158 86.512C524.99 85.488 526.238 84.624 527.902 83.92C529.758 83.216 531.934 82.704 534.43 82.384C536.99 82.064 539.39 81.904 541.63 81.904ZM597.016 81.904C599.64 81.904 602.2 82.288 604.696 83.056C607.256 83.76 609.464 84.848 611.32 86.32C613.24 85.04 615.384 83.984 617.752 83.152C620.184 82.32 623.096 81.904 626.488 81.904C628.92 81.904 631.288 82.224 633.592 82.864C635.96 83.504 638.04 84.528 639.832 85.936C641.688 87.28 643.16 89.104 644.248 91.408C645.336 93.648 645.88 96.4 645.88 99.664V129.904C645.24 130.096 644.216 130.288 642.808 130.48C641.464 130.672 640.056 130.768 638.584 130.768C637.176 130.768 635.896 130.672 634.744 130.48C633.656 130.288 632.728 129.904 631.96 129.328C631.192 128.752 630.584 127.984 630.136 127.024C629.752 126 629.56 124.688 629.56 123.088V100.144C629.56 98.224 629.016 96.848 627.928 96.016C626.84 95.12 625.368 94.672 623.512 94.672C622.616 94.672 621.656 94.896 620.632 95.344C619.608 95.728 618.84 96.144 618.328 96.592C618.392 96.848 618.424 97.104 618.424 97.36C618.424 97.552 618.424 97.744 618.424 97.936V129.904C617.72 130.096 616.664 130.288 615.256 130.48C613.912 130.672 612.536 130.768 611.128 130.768C609.72 130.768 608.44 130.672 607.288 130.48C606.2 130.288 605.272 129.904 604.504 129.328C603.736 128.752 603.128 127.984 602.68 127.024C602.296 126 602.104 124.688 602.104 123.088V100.144C602.104 98.224 601.496 96.848 600.28 96.016C599.128 95.12 597.72 94.672 596.056 94.672C594.904 94.672 593.912 94.864 593.08 95.248C592.248 95.568 591.544 95.888 590.968 96.208V129.904C590.328 130.096 589.304 130.288 587.896 130.48C586.552 130.672 585.144 130.768 583.672 130.768C582.264 130.768 580.984 130.672 579.832 130.48C578.744 130.288 577.816 129.904 577.048 129.328C576.28 128.752 575.672 127.984 575.224 127.024C574.84 126 574.648 124.688 574.648 123.088V94.096C574.648 92.368 575 90.992 575.704 89.968C576.472 88.944 577.496 87.984 578.776 87.088C580.952 85.552 583.64 84.304 586.84 83.344C590.104 82.384 593.496 81.904 597.016 81.904ZM697.308 115.696C696.476 116.4 695.388 116.976 694.044 117.424C692.764 117.808 691.26 118 689.532 118C687.228 118 685.308 117.712 683.772 117.136C682.3 116.56 681.34 115.568 680.892 114.16C679.1 108.528 677.628 103.984 676.476 100.528C675.324 97.008 674.428 93.936 673.788 91.312H673.308C673.116 95.088 672.956 98.544 672.828 101.68C672.764 104.752 672.7 107.76 672.636 110.704C672.636 113.648 672.572 116.624 672.444 119.632C672.38 122.64 672.252 125.968 672.06 129.616C671.228 129.936 670.14 130.192 668.796 130.384C667.452 130.64 666.108 130.768 664.764 130.768C661.948 130.768 659.74 130.32 658.14 129.424C656.604 128.528 655.836 126.896 655.836 124.528L658.62 75.568C659.132 74.736 660.252 73.84 661.98 72.88C663.708 71.92 666.14 71.44 669.276 71.44C672.668 71.44 675.324 71.984 677.244 73.072C679.164 74.096 680.572 75.792 681.468 78.16C682.044 79.696 682.652 81.456 683.292 83.44C683.996 85.424 684.668 87.472 685.308 89.584C686.012 91.696 686.684 93.808 687.324 95.92C687.964 97.968 688.54 99.824 689.052 101.488H689.532C691.068 96.112 692.604 90.928 694.14 85.936C695.676 80.88 697.084 76.656 698.364 73.264C699.324 72.752 700.54 72.336 702.012 72.016C703.548 71.632 705.244 71.44 707.1 71.44C710.236 71.44 712.796 71.92 714.78 72.88C716.764 73.776 717.916 75.088 718.236 76.816C718.492 78.096 718.748 80.08 719.004 82.768C719.324 85.392 719.644 88.368 719.964 91.696C720.284 95.024 720.604 98.544 720.924 102.256C721.244 105.968 721.532 109.552 721.788 113.008C722.108 116.4 722.364 119.536 722.556 122.416C722.748 125.232 722.876 127.408 722.94 128.944C721.852 129.584 720.7 130.032 719.484 130.288C718.332 130.608 716.828 130.768 714.972 130.768C712.54 130.768 710.492 130.352 708.828 129.52C707.164 128.688 706.268 127.056 706.14 124.624C705.756 117.648 705.5 111.376 705.372 105.808C705.308 100.24 705.18 95.568 704.988 91.792H704.508C703.868 94.288 702.94 97.424 701.724 101.2C700.508 104.976 699.036 109.808 697.308 115.696ZM752.304 119.632C753.392 119.632 754.576 119.536 755.856 119.344C757.2 119.088 758.192 118.768 758.832 118.384V110.704L751.92 111.28C750.128 111.408 748.656 111.792 747.504 112.432C746.352 113.072 745.776 114.032 745.776 115.312C745.776 116.592 746.256 117.648 747.216 118.48C748.24 119.248 749.936 119.632 752.304 119.632ZM751.536 81.904C754.992 81.904 758.128 82.256 760.944 82.96C763.824 83.664 766.256 84.752 768.24 86.224C770.288 87.632 771.856 89.456 772.944 91.696C774.032 93.872 774.576 96.464 774.576 99.472V120.976C774.576 122.64 774.096 124.016 773.136 125.104C772.24 126.128 771.152 127.024 769.872 127.792C765.712 130.288 759.856 131.536 752.304 131.536C748.912 131.536 745.84 131.216 743.088 130.576C740.4 129.936 738.064 128.976 736.08 127.696C734.16 126.416 732.656 124.784 731.568 122.8C730.544 120.816 730.032 118.512 730.032 115.888C730.032 111.472 731.344 108.08 733.968 105.712C736.592 103.344 740.656 101.872 746.16 101.296L758.736 99.952V99.28C758.736 97.424 757.904 96.112 756.24 95.344C754.64 94.512 752.304 94.096 749.232 94.096C746.8 94.096 744.432 94.352 742.128 94.864C739.824 95.376 737.744 96.016 735.888 96.784C735.056 96.208 734.352 95.344 733.776 94.192C733.2 92.976 732.912 91.728 732.912 90.448C732.912 88.784 733.296 87.472 734.064 86.512C734.896 85.488 736.144 84.624 737.808 83.92C739.664 83.216 741.84 82.704 744.336 82.384C746.896 82.064 749.296 81.904 751.536 81.904ZM814.123 100.432C814.123 98.448 813.547 97.008 812.395 96.112C811.307 95.152 809.803 94.672 807.883 94.672C806.603 94.672 805.323 94.832 804.043 95.152C802.827 95.472 801.771 95.952 800.875 96.592V129.904C800.235 130.096 799.211 130.288 797.803 130.48C796.459 130.672 795.051 130.768 793.579 130.768C792.171 130.768 790.891 130.672 789.739 130.48C788.651 130.288 787.723 129.904 786.955 129.328C786.187 128.752 785.579 127.984 785.131 127.024C784.747 126 784.555 124.688 784.555 123.088V94.288C784.555 92.56 784.907 91.152 785.611 90.064C786.379 88.976 787.403 87.984 788.683 87.088C790.859 85.552 793.579 84.304 796.843 83.344C800.171 82.384 803.851 81.904 807.883 81.904C815.115 81.904 820.683 83.504 824.587 86.704C828.491 89.84 830.443 94.224 830.443 99.856V129.904C829.803 130.096 828.779 130.288 827.371 130.48C826.027 130.672 824.619 130.768 823.147 130.768C821.739 130.768 820.459 130.672 819.307 130.48C818.219 130.288 817.291 129.904 816.523 129.328C815.755 128.752 815.147 127.984 814.699 127.024C814.315 126 814.123 124.688 814.123 123.088V100.432ZM860.491 119.632C861.579 119.632 862.763 119.536 864.043 119.344C865.387 119.088 866.379 118.768 867.019 118.384V110.704L860.107 111.28C858.315 111.408 856.843 111.792 855.691 112.432C854.539 113.072 853.963 114.032 853.963 115.312C853.963 116.592 854.443 117.648 855.403 118.48C856.427 119.248 858.123 119.632 860.491 119.632ZM859.723 81.904C863.179 81.904 866.315 82.256 869.131 82.96C872.011 83.664 874.443 84.752 876.427 86.224C878.475 87.632 880.043 89.456 881.131 91.696C882.219 93.872 882.763 96.464 882.763 99.472V120.976C882.763 122.64 882.283 124.016 881.323 125.104C880.427 126.128 879.339 127.024 878.059 127.792C873.899 130.288 868.043 131.536 860.491 131.536C857.099 131.536 854.027 131.216 851.275 130.576C848.587 129.936 846.251 128.976 844.267 127.696C842.347 126.416 840.843 124.784 839.755 122.8C838.731 120.816 838.219 118.512 838.219 115.888C838.219 111.472 839.531 108.08 842.155 105.712C844.779 103.344 848.843 101.872 854.347 101.296L866.923 99.952V99.28C866.923 97.424 866.091 96.112 864.427 95.344C862.827 94.512 860.491 94.096 857.419 94.096C854.987 94.096 852.619 94.352 850.315 94.864C848.011 95.376 845.931 96.016 844.075 96.784C843.243 96.208 842.539 95.344 841.963 94.192C841.387 92.976 841.099 91.728 841.099 90.448C841.099 88.784 841.483 87.472 842.251 86.512C843.083 85.488 844.331 84.624 845.995 83.92C847.851 83.216 850.027 82.704 852.523 82.384C855.083 82.064 857.483 81.904 859.723 81.904ZM915.494 81.904C919.142 81.904 922.438 82.384 925.382 83.344C928.39 84.24 930.918 85.424 932.966 86.896C934.246 87.792 935.238 88.784 935.942 89.872C936.71 90.96 937.094 92.368 937.094 94.096V127.696C937.094 131.088 936.454 134 935.174 136.432C933.894 138.928 932.134 140.976 929.894 142.576C927.718 144.24 925.126 145.456 922.118 146.224C919.174 146.992 916.006 147.376 912.614 147.376C906.79 147.376 902.214 146.576 898.886 144.976C895.558 143.44 893.894 140.912 893.894 137.392C893.894 135.92 894.182 134.608 894.758 133.456C895.398 132.368 896.102 131.536 896.87 130.96C898.726 131.984 900.806 132.848 903.11 133.552C905.478 134.256 907.91 134.608 910.406 134.608C913.862 134.608 916.614 134.032 918.662 132.88C920.71 131.728 921.734 129.872 921.734 127.312V125.776C919.11 126.928 915.91 127.504 912.134 127.504C909.254 127.504 906.502 127.088 903.878 126.256C901.318 125.36 899.046 124.016 897.062 122.224C895.142 120.368 893.574 118 892.358 115.12C891.206 112.24 890.63 108.816 890.63 104.848C890.63 100.944 891.238 97.552 892.454 94.672C893.734 91.792 895.462 89.424 897.638 87.568C899.878 85.648 902.502 84.24 905.51 83.344C908.582 82.384 911.91 81.904 915.494 81.904ZM921.446 95.824C920.998 95.568 920.326 95.312 919.43 95.056C918.598 94.8 917.542 94.672 916.262 94.672C913.126 94.672 910.758 95.568 909.158 97.36C907.622 99.088 906.854 101.584 906.854 104.848C906.854 108.56 907.622 111.248 909.158 112.912C910.758 114.512 912.774 115.312 915.206 115.312C917.83 115.312 919.91 114.704 921.446 113.488V95.824ZM971.883 131.536C968.107 131.536 964.587 131.024 961.323 130C958.123 128.912 955.307 127.312 952.875 125.2C950.507 123.088 948.619 120.432 947.211 117.232C945.867 114.032 945.195 110.288 945.195 106C945.195 101.776 945.867 98.16 947.211 95.152C948.619 92.08 950.443 89.584 952.683 87.664C954.923 85.68 957.483 84.24 960.363 83.344C963.243 82.384 966.187 81.904 969.195 81.904C972.587 81.904 975.659 82.416 978.411 83.44C981.227 84.464 983.627 85.872 985.611 87.664C987.659 89.456 989.227 91.6 990.315 94.096C991.467 96.592 992.043 99.312 992.043 102.256C992.043 104.432 991.435 106.096 990.219 107.248C989.003 108.4 987.307 109.136 985.131 109.456L961.419 113.008C962.123 115.12 963.563 116.72 965.739 117.808C967.915 118.832 970.411 119.344 973.227 119.344C975.851 119.344 978.315 119.024 980.619 118.384C982.987 117.68 984.907 116.88 986.379 115.984C987.403 116.624 988.267 117.52 988.971 118.672C989.675 119.824 990.027 121.04 990.027 122.32C990.027 125.2 988.683 127.344 985.995 128.752C983.947 129.84 981.643 130.576 979.083 130.96C976.523 131.344 974.123 131.536 971.883 131.536ZM969.195 93.808C967.659 93.808 966.315 94.064 965.163 94.576C964.075 95.088 963.179 95.76 962.475 96.592C961.771 97.36 961.227 98.256 960.843 99.28C960.523 100.24 960.331 101.232 960.267 102.256L976.683 99.568C976.491 98.288 975.787 97.008 974.571 95.728C973.355 94.448 971.563 93.808 969.195 93.808ZM1016.22 129.904C1015.58 130.096 1014.55 130.288 1013.15 130.48C1011.8 130.672 1010.39 130.768 1008.92 130.768C1007.51 130.768 1006.23 130.672 1005.08 130.48C1003.99 130.288 1003.07 129.904 1002.3 129.328C1001.53 128.752 1000.92 127.984 1000.47 127.024C1000.09 126 999.898 124.688 999.898 123.088V94.288C999.898 92.816 1000.15 91.568 1000.67 90.544C1001.24 89.456 1002.04 88.496 1003.07 87.664C1004.09 86.832 1005.34 86.096 1006.81 85.456C1008.35 84.752 1009.98 84.144 1011.71 83.632C1013.43 83.12 1015.23 82.736 1017.08 82.48C1018.94 82.16 1020.79 82 1022.65 82C1025.72 82 1028.15 82.608 1029.95 83.824C1031.74 84.976 1032.63 86.896 1032.63 89.584C1032.63 90.48 1032.51 91.376 1032.25 92.272C1031.99 93.104 1031.67 93.872 1031.29 94.576C1029.95 94.576 1028.57 94.64 1027.16 94.768C1025.75 94.896 1024.38 95.088 1023.03 95.344C1021.69 95.6 1020.41 95.888 1019.19 96.208C1018.04 96.464 1017.05 96.784 1016.22 97.168V129.904Z" fill="url(#paint0_linear_609_2)"/>
<path d="M165.499 169.85C157.765 174.316 148.235 174.317 140.5 169.852L101.33 147.243C93.5942 142.777 88.8283 134.523 88.8283 125.591V80.3611C88.8283 71.4302 93.5925 63.1776 101.327 58.7115L140.501 36.0901C148.235 31.6238 157.765 31.623 165.5 36.0879L204.67 58.6972C212.406 63.1627 217.172 71.4165 217.172 80.349V125.579C217.172 134.51 212.407 142.762 204.673 147.228L165.499 169.85ZM101.672 118.18C101.672 127.111 106.436 135.363 114.169 139.829L140.498 155.034C148.234 159.501 157.766 159.501 165.502 155.034L191.831 139.829C199.564 135.363 204.328 127.111 204.328 118.18V87.7749C204.328 78.8442 199.564 70.5918 191.831 66.1256L165.502 50.9211C157.766 46.4534 148.234 46.4534 140.498 50.9211L114.169 66.1256C106.436 70.5918 101.672 78.8442 101.672 87.7749V118.18Z" fill="#FF755D"/>
<path d="M152.97 122.25C148.308 122.25 143.856 120.581 140.322 117.483C136.457 114.099 134.141 109.407 133.795 104.278C133.103 93.6908 141.149 84.502 151.737 83.7951C156.835 83.4643 161.813 85.1336 165.693 88.5174C169.558 91.9012 171.874 96.5934 172.22 101.722C172.912 112.309 164.866 121.498 154.278 122.205C153.827 122.235 153.406 122.25 152.97 122.25ZM153.015 96.5783C152.865 96.5783 152.729 96.5783 152.579 96.5934C149.045 96.834 146.368 99.8869 146.593 103.421C146.714 105.136 147.481 106.7 148.759 107.828C150.052 108.955 151.692 109.512 153.406 109.407C156.94 109.166 159.617 106.113 159.392 102.579C159.271 100.864 158.504 99.3004 157.211 98.1725C156.053 97.1348 154.564 96.5783 153.015 96.5783Z" fill="#40596B"/>
<defs>
<linearGradient id="paint0_linear_609_2" x1="258.092" y1="97.6" x2="1061.87" y2="99.8864" gradientUnits="userSpaceOnUse">
<stop stop-color="#FF7058"/>
<stop offset="1" stop-color="#FFADA0"/>
</linearGradient>
</defs>
</svg>
